<?xml version="1.0" encoding="UTF-8" standalone="no"?>
<!-- Created with Inkscape (http://www.inkscape.org/) -->

<svg
   width="1544"
   height="500"
   viewBox="0 0 1544 500"
   version="1.1"
   id="svg1"
   xml:space="preserve"
   inkscape:version="1.3.2 (091e20e, 2023-11-25, custom)"
   sodipodi:docname="banner.svg"
   xmlns:inkscape="http://www.inkscape.org/namespaces/inkscape"
   xmlns:sodipodi="http://sodipodi.sourceforge.net/DTD/sodipodi-0.dtd"
   xmlns="http://www.w3.org/2000/svg"
   xmlns:svg="http://www.w3.org/2000/svg"
   xmlns:rdf="http://www.w3.org/1999/02/22-rdf-syntax-ns#"
   xmlns:cc="http://creativecommons.org/ns#"
   xmlns:dc="http://purl.org/dc/elements/1.1/"><defs
     id="defs1"><marker
       style="overflow:visible"
       id="RoundedArrow"
       refX="0"
       refY="0"
       orient="auto-start-reverse"
       inkscape:stockid="Rounded arrow"
       markerWidth="0.5"
       markerHeight="0.5"
       viewBox="0 0 1 1"
       inkscape:isstock="true"
       inkscape:collect="always"
       preserveAspectRatio="xMidYMid"><path
         transform="scale(0.7)"
         d="m -0.21114562,-4.1055728 6.42229122,3.21114561 a 1,1 90 0 1 0,1.78885438 L -0.21114562,4.1055728 A 1.236068,1.236068 31.717474 0 1 -2,3 v -6 a 1.236068,1.236068 148.28253 0 1 1.78885438,-1.1055728 z"
         style="fill:context-stroke;fill-rule:evenodd;stroke:none"
         id="path9" /></marker><marker
       style="overflow:visible"
       id="marker7"
       refX="0"
       refY="0"
       orient="auto-start-reverse"
       inkscape:stockid="Rounded arrow"
       markerWidth="0.5"
       markerHeight="0.5"
       viewBox="0 0 1 1"
       inkscape:isstock="true"
       inkscape:collect="always"
       preserveAspectRatio="xMidYMid"><path
         transform="scale(0.7)"
         d="m -0.21114562,-4.1055728 6.42229122,3.21114561 a 1,1 90 0 1 0,1.78885438 L -0.21114562,4.1055728 A 1.236068,1.236068 31.717474 0 1 -2,3 v -6 a 1.236068,1.236068 148.28253 0 1 1.78885438,-1.1055728 z"
         style="fill:context-stroke;fill-rule:evenodd;stroke:none"
         id="path7" /></marker></defs><sodipodi:namedview
     id="base"
     pagecolor="#ffffff"
     bordercolor="#000000"
     borderopacity="0.3"
     inkscape:pageopacity="0.0"
     inkscape:pageshadow="2"
     inkscape:zoom="0.49497475"
     inkscape:cx="1882.9243"
     inkscape:cy="150.51273"
     inkscape:document-units="px"
     inkscape:showpageshadow="2"
     inkscape:pagecheckerboard="0"
     inkscape:deskcolor="#d1d1d1"
     inkscape:window-width="1920"
     inkscape:window-height="1009"
     inkscape:window-x="1912"
     inkscape:window-y="-8"
     inkscape:window-maximized="1"
     inkscape:current-layer="layer1"
     inkscape:export-bgcolor="#ffffffff"><inkscape:page
       x="0"
       y="0"
       width="1544"
       height="500"
       id="page9"
       margin="0"
       bleed="0"
       inkscape:label="banner" /></sodipodi:namedview><metadata
     id="metadata1"><rdf:RDF><cc:Work
         rdf:about=""><dc:format>image/svg+xml</dc:format><dc:type
           rdf:resource="http://purl.org/dc/dcmitype/StillImage" /></cc:Work></rdf:RDF></metadata><style
     id="style1">.st0{fill:#06C}</style><g
     inkscape:groupmode="layer"
     id="layer1"
     inkscape:label="Icons"><path
       d="m 792.50379,184.19133 -58.16766,24.92901 c -3.6355,1.55806 -5.66096,5.45322 -4.85597,9.29644 0.805,3.84322 4.18082,6.64773 8.12787,6.64773 v 2.07742 c 0,3.4537 2.77859,6.23225 6.23229,6.23225 h 103.87086 c 3.45369,0 6.23222,-2.77855 6.23222,-6.23225 v -2.07742 c 3.94711,0 7.34887,-2.77854 8.12793,-6.64773 0.779,-3.86919 -1.24647,-7.76435 -4.856,-9.29644 l -58.16766,-24.92901 c -2.07741,-0.8829 -4.46643,-0.8829 -6.54388,0 z m -29.96674,57.49252 h -16.61932 v 50.9746 c -0.15608,0.0779 -0.31153,0.18177 -0.46742,0.28565 l -12.4645,8.30966 c -3.0382,2.02548 -4.41453,5.81678 -3.34985,9.3224 1.06467,3.50567 4.31067,5.89469 7.9721,5.89469 H 853.9434 c 3.66147,0 6.88146,-2.38902 7.9461,-5.89469 1.06471,-3.50562 -0.28577,-7.29692 -3.34982,-9.3224 l -12.4645,-8.30966 c -0.15577,-0.10388 -0.31153,-0.18176 -0.46729,-0.28565 v -50.9746 H 829.0145 v 49.85802 h -10.38706 v -49.85802 h -16.61933 v 49.85802 H 789.5436 v -49.85802 h -16.61932 v 49.85802 h -10.38707 z m 33.23868,-41.54834 a 8.3096691,8.3096691 0 1 1 0,16.61933 8.3096691,8.3096691 0 1 1 0,-16.61933 z"
       id="path1"
       style="fill:#3479d3;fill-opacity:1;stroke-width:1.74015" /><path
       d="m 303.81279,184.93127 c -2.80424,-1.86949 -6.43939,-1.86949 -9.2436,0 l -35.28668,23.52444 h -30.7168 c -6.88078,0 -12.46329,5.58252 -12.46329,12.46328 v 83.08859 c 0,6.88076 5.58251,12.46327 12.46329,12.46327 h 54.00755 V 291.5443 c 0,-9.16573 7.45202,-16.61772 16.61772,-16.61772 9.16571,0 16.61771,7.45199 16.61771,16.61772 v 24.92655 h 54.00756 c 6.88079,0 12.46329,-5.58251 12.46329,-12.46327 v -83.08859 c 0,-6.88076 -5.5825,-12.46328 -12.46329,-12.46328 h -30.7168 z m -62.7838,48.45101 h 8.30887 c 2.28492,0 4.15441,1.86951 4.15441,4.15443 v 16.61772 c 0,2.28494 -1.86949,4.15443 -4.15441,4.15443 h -8.30887 c -2.28493,0 -4.15444,-1.86949 -4.15444,-4.15443 v -16.61772 c 0,-2.28492 1.86951,-4.15443 4.15444,-4.15443 z m 103.86069,4.15443 c 0,-2.28492 1.86949,-4.15443 4.15443,-4.15443 h 8.30886 c 2.28494,0 4.15444,1.86951 4.15444,4.15443 v 16.61772 c 0,2.28494 -1.8695,4.15443 -4.15444,4.15443 h -8.30886 c -2.28494,0 -4.15443,-1.86949 -4.15443,-4.15443 z M 241.02899,266.6177 h 8.30887 c 2.28492,0 4.15441,1.86949 4.15441,4.15444 v 16.61771 c 0,2.28496 -1.86949,4.15445 -4.15441,4.15445 h -8.30887 c -2.28493,0 -4.15444,-1.86949 -4.15444,-4.15445 v -16.61771 c 0,-2.28495 1.86951,-4.15444 4.15444,-4.15444 z m 103.86069,4.15444 c 0,-2.28495 1.86949,-4.15444 4.15443,-4.15444 h 8.30886 c 2.28494,0 4.15444,1.86949 4.15444,4.15444 v 16.61771 c 0,2.28496 -1.8695,4.15445 -4.15444,4.15445 h -8.30886 c -2.28494,0 -4.15443,-1.86949 -4.15443,-4.15445 z m -68.54805,-41.54428 a 22.84936,22.84936 0 1 1 45.69872,0 22.84936,22.84936 0 1 1 -45.69872,0 z m 22.84935,-12.46327 c -2.28493,0 -4.15444,1.86948 -4.15444,4.1544 v 8.30887 c 0,2.28493 1.86951,4.15442 4.15444,4.15442 h 8.30886 c 2.28493,0 4.15444,-1.86949 4.15444,-4.15442 0,-2.28494 -1.86951,-4.15443 -4.15444,-4.15443 h -4.15443 v -4.15444 c 0,-2.28492 -1.86948,-4.1544 -4.15443,-4.1544 z"
       id="path1-3"
       style="fill:#3479d3;fill-opacity:1;stroke-width:1.74016" /><g
       id="g2"
       transform="matrix(3.1403551,0,0,3.1403551,235.42545,31.057051)"
       style="stroke-width:2.09433"><g
         id="g1"
         transform="matrix(0.26458333,0,0,0.26458333,310.0463,44.596652)"
         style="stroke-width:2.09433"><path
           id="XMLID_85_"
           class="st0"
           d="M 29.8,25 C 23.5,24.2 19,23.8 16.5,23.8 c -2.5,0 -4.2,0.2 -4.9,0.7 -0.7,0.5 -1.1,1.2 -1.1,2.2 0,1 0.5,1.7 1.5,2.1 1,0.4 3.6,0.9 7.7,1.7 4.1,0.7 7.1,2 8.8,3.6 1.7,1.7 2.6,4.4 2.6,8.2 0,8.3 -5.1,12.4 -15.4,12.4 -3.4,0 -7.5,-0.5 -12.3,-1.4 L 0.9,52.8 1.2,44.2 c 6.3,0.8 10.8,1.2 13.2,1.2 2.5,0 4.2,-0.2 5.1,-0.7 0.9,-0.5 1.3,-1.2 1.3,-2.2 0,-1 -0.5,-1.7 -1.4,-2.1 C 18.5,39.9 16,39.4 12,38.7 8,38 5.1,36.9 3.1,35.3 1.2,33.7 0.2,30.9 0.2,26.8 c 0,-4.1 1.4,-7.1 4.1,-9.2 2.8,-2.1 6.3,-3.1 10.7,-3.1 3,0 7.1,0.5 12.4,1.5 l 2.5,0.5 z"
           style="stroke-width:2.09433" /><path
           id="XMLID_82_"
           class="st0"
           d="m 55.4,23.7 c -1.9,0 -3.8,0.4 -5.8,1.2 l -0.9,0.4 v 20.1 c 2.3,0.3 4.2,0.5 5.6,0.5 3,0 5,-0.9 6.1,-2.6 1.1,-1.7 1.7,-4.7 1.7,-8.9 0,-7.2 -2.2,-10.7 -6.7,-10.7 M 38.5,69.9 V 15.4 h 10.2 v 2.1 c 3.3,-2 6.2,-3 8.8,-3 5.2,0 9,1.6 11.4,4.6 2.5,3.1 3.7,8.4 3.7,15.8 0,7.4 -1.4,12.6 -4.1,15.5 -2.7,2.9 -7.2,4.3 -13.4,4.3 -1.7,0 -3.5,-0.2 -5.5,-0.5 L 48.7,54 V 69.8 H 38.5 Z"
           style="stroke-width:2.09433" /><path
           id="XMLID_79_"
           class="st0"
           d="m 131.6,44.5 1.1,-0.2 V 24.1 c -2.8,-0.5 -5.3,-0.8 -7.5,-0.8 -4.1,0 -6.2,3.7 -6.2,11.1 0,4 0.5,6.8 1.4,8.5 0.9,1.7 2.4,2.5 4.6,2.5 2.2,0 4.3,-0.2 6.6,-0.9 M 143,0 v 53.8 h -10.2 v -1.6 c -3.6,1.7 -6.7,2.5 -9.3,2.5 -5.6,0 -9.5,-1.6 -11.7,-4.8 -2.2,-3.2 -3.3,-8.3 -3.3,-15.3 0,-7 1.3,-12.1 4,-15.3 2.6,-3.2 6.6,-4.8 11.9,-4.8 1.6,0 3.9,0.3 6.8,0.8 l 1.5,0.3 V 0 Z"
           style="stroke-width:2.09433" /><path
           id="XMLID_78_"
           class="st0"
           d="m 90.5,37.7 c -3.2,0 -5.8,-1.1 -7.8,-3.2 -2,-2.1 -3.1,-4.8 -3.1,-8 0,-3.2 1,-5.8 3.1,-7.9 2,-2.1 4.6,-3.1 7.8,-3.1 3.2,0 5.8,1.1 7.7,3.2 2,2.2 3,4.8 3,8 0,3.2 -1,5.8 -3,7.9 -2,2 -4.5,3.1 -7.7,3.1"
           style="stroke-width:2.09433" /><path
           id="XMLID_77_"
           class="st0"
           d="m 79.6,53.2 c 0,-3.2 1,-5.8 3.1,-7.9 2,-2.1 4.6,-3.1 7.8,-3.1 3.2,0 5.8,1.1 7.7,3.2 2,2.2 3,4.8 3,8"
           style="stroke-width:2.09433" /></g><g
         id="Livello_1-2"
         data-name="Livello 1"
         transform="matrix(0.26458333,0,0,0.26458333,315.6265,66.140741)"
         style="fill:#0053a2;fill-opacity:1;stroke-width:2.09433"><path
           d="M 30.6,15.7 34,14.5 75.5,0.2 a 3.1,3.1 0 0 1 3.1,0.6 7,7 0 0 1 1.9,2.8 c 1.2,3.1 2.4,6.1 3.6,9.3 a 22.1,22.1 0 0 1 1.2,8.9 C 85.2,23.1 85,24.4 85,25.7 a 15,15 0 0 0 0,3 c 0.1,1.3 0.2,2.6 0.4,3.9 a 14.2,14.2 0 0 0 2.8,7.1 c 2.8,3.6 5.5,7.3 8.3,11 a 46.7,46.7 0 0 1 3.8,6 5.5,5.5 0 0 1 0.7,2.5 4.1,4.1 0 0 1 -0.4,2.2 10.9,10.9 0 0 1 -2.7,3.3 19.8,19.8 0 0 1 -4.1,2.8 9.6,9.6 0 0 0 -3,2.3 3.4,3.4 0 0 0 -0.5,3.6 l 0.9,2.3 a 3.8,3.8 0 0 1 -0.5,4.1 10.5,10.5 0 0 1 -0.8,1.1 3.2,3.2 0 0 0 -0.4,2.5 l 0.3,1.2 A 3.1,3.1 0 0 1 89,87.2 c -0.6,0.6 -1.1,1.3 -1.6,1.9 a 6.1,6.1 0 0 0 -1.5,4.4 12.7,12.7 0 0 0 0.6,2.8 16,16 0 0 1 0.5,4.9 7.6,7.6 0 0 1 -4.1,6.6 6.9,6.9 0 0 1 -4,0.6 l -5.2,-0.9 c -6.5,-1.1 -12.8,-2.7 -19.2,-4.1 L 47.8,102 H 47.6 C 58.8,94.8 66.1,84.8 68.8,71.8 A 44.9,44.9 0 0 0 61.7,35.7 C 54.2,24.6 43.6,18.1 30.6,15.7 Z"
           fill="#ffffff"
           id="path1-9"
           style="fill:#0053a2;fill-opacity:1;stroke-width:2.09433" /><path
           d="M 12.2,57.5 C 7.4,57.5 4.2,56.2 2.5,53.6 0.8,51 0,46.7 0,40.7 0,34.7 0.9,30.4 2.6,27.9 4.3,25.4 7.5,24.1 12.2,24.1 a 39,39 0 0 1 9.2,1.1 v 4.3 a 50,50 0 0 0 -8.6,-0.8 c -2.8,0 -4.7,0.9 -5.7,2.6 -1,1.7 -1.6,4.8 -1.6,9.5 0,4.7 0.5,7.8 1.5,9.5 1,1.7 2.9,2.5 5.7,2.5 a 51,51 0 0 0 8.7,-0.7 v 4.4 a 43.8,43.8 0 0 1 -9.2,1 z"
           fill="#ffffff"
           id="path2"
           style="fill:#0053a2;fill-opacity:1;stroke-width:2.09433" /><path
           d="m 25.5,29.3 v -5.4 h 5.2 v 5.4 z m 0,27.7 V 33.3 h 5.2 V 57 Z"
           fill="#ffffff"
           id="path3"
           style="fill:#0053a2;fill-opacity:1;stroke-width:2.09433" /><path
           d="m 52.9,52.7 h 1.3 v 3.8 a 44.2,44.2 0 0 1 -9.6,1.1 c -3.5,0 -6,-0.9 -7.5,-2.9 -1.5,-2 -2.3,-5 -2.3,-9.2 0,-8.4 3.4,-12.6 10.3,-12.6 6.9,0 9.9,3.6 9.9,10.9 l -0.3,3.6 H 40.1 a 6.8,6.8 0 0 0 1.3,4.4 c 0.8,0.9 2.3,1.3 4.6,1.3 z M 50,43.4 c 0,-2.4 -0.3,-4 -1.1,-4.9 -0.8,-0.9 -2,-1.4 -3.7,-1.4 a 5,5 0 0 0 -3.9,1.4 c -0.8,1 -1.2,2.6 -1.2,4.9 z"
           fill="#ffffff"
           id="path4"
           style="fill:#0053a2;fill-opacity:1;stroke-width:2.09433" /><path
           d="M 20.2,95.7 V 63.3 h 5.3 v 32.4 z"
           fill="#ffffff"
           id="path5"
           style="fill:#0053a2;fill-opacity:1;stroke-width:2.09433" /><path
           d="M 42.2,95.7 H 30.9 V 63.3 h 11.3 c 4.9,0 8.4,1.2 10.2,3.8 1.8,2.6 2.7,6.5 2.7,11.9 a 34.8,34.8 0 0 1 -0.5,6.9 16.9,16.9 0 0 1 -1.9,5.2 c -1.8,3.1 -5.3,4.6 -10.5,4.6 z M 49.7,79 c 0,-4 -0.5,-6.8 -1.5,-8.5 -1,-1.7 -3,-2.6 -6,-2.6 h -6 v 23.2 h 6 c 3.1,0 5.2,-1.2 6.2,-3.5 a 11.3,11.3 0 0 0 1,-3.7 33.8,33.8 0 0 0 0.3,-4.9 z"
           fill="#ffffff"
           id="path6"
           style="fill:#0053a2;fill-opacity:1;stroke-width:2.09433" /></g></g><path
       style="fill:none;fill-opacity:1;stroke:#5386d2;stroke-width:13.9212;stroke-linecap:round;stroke-linejoin:round;stroke-dasharray:none;stroke-opacity:1;marker-start:url(#RoundedArrow);marker-end:url(#marker7)"
       d="m 512.37753,250 h 86.80363"
       id="path8" /><path
       style="fill:#0053a2;fill-opacity:1;stroke:#5386d2;stroke-width:13.921;stroke-linecap:round;stroke-linejoin:round;stroke-dasharray:none;stroke-opacity:1;marker-start:url(#RoundedArrow);marker-end:url(#marker7)"
       d="m 992.34647,250 h 86.80363"
       id="path12" /></g></svg>
