<?xml version="1.0" encoding="UTF-8" standalone="no"?>
<!-- Created with Inkscape (http://www.inkscape.org/) -->

<svg
   width="1544"
   height="500"
   viewBox="0 0 1544 500"
   version="1.1"
   id="svg1"
   xml:space="preserve"
   inkscape:version="1.3.2 (091e20e, 2023-11-25, custom)"
   sodipodi:docname="banner.svg"
   xmlns:inkscape="http://www.inkscape.org/namespaces/inkscape"
   xmlns:sodipodi="http://sodipodi.sourceforge.net/DTD/sodipodi-0.dtd"
   xmlns="http://www.w3.org/2000/svg"
   xmlns:svg="http://www.w3.org/2000/svg"
   xmlns:rdf="http://www.w3.org/1999/02/22-rdf-syntax-ns#"
   xmlns:cc="http://creativecommons.org/ns#"
   xmlns:dc="http://purl.org/dc/elements/1.1/"><defs
     id="defs1"><marker
       style="overflow:visible"
       id="RoundedArrow"
       refX="0"
       refY="0"
       orient="auto-start-reverse"
       inkscape:stockid="Rounded arrow"
       markerWidth="0.5"
       markerHeight="0.5"
       viewBox="0 0 1 1"
       inkscape:isstock="true"
       inkscape:collect="always"
       preserveAspectRatio="xMidYMid"><path
         transform="scale(0.7)"
         d="m -0.21114562,-4.1055728 6.42229122,3.21114561 a 1,1 90 0 1 0,1.78885438 L -0.21114562,4.1055728 A 1.236068,1.236068 31.717474 0 1 -2,3 v -6 a 1.236068,1.236068 148.28253 0 1 1.78885438,-1.1055728 z"
         style="fill:context-stroke;fill-rule:evenodd;stroke:none"
         id="path9" /></marker><marker
       style="overflow:visible"
       id="marker7"
       refX="0"
       refY="0"
       orient="auto-start-reverse"
       inkscape:stockid="Rounded arrow"
       markerWidth="0.5"
       markerHeight="0.5"
       viewBox="0 0 1 1"
       inkscape:isstock="true"
       inkscape:collect="always"
       preserveAspectRatio="xMidYMid"><path
         transform="scale(0.7)"
         d="m -0.21114562,-4.1055728 6.42229122,3.21114561 a 1,1 90 0 1 0,1.78885438 L -0.21114562,4.1055728 A 1.236068,1.236068 31.717474 0 1 -2,3 v -6 a 1.236068,1.236068 148.28253 0 1 1.78885438,-1.1055728 z"
         style="fill:context-stroke;fill-rule:evenodd;stroke:none"
         id="path7" /></marker></defs><sodipodi:namedview
     id="base"
     pagecolor="#ffffff"
     bordercolor="#000000"
     borderopacity="0.3"
     inkscape:pageopacity="0.0"
     inkscape:pageshadow="2"
     inkscape:zoom="0.49497475"
     inkscape:cx="812.16264"
     inkscape:cy="271.73103"
     inkscape:document-units="px"
     inkscape:showpageshadow="2"
     inkscape:pagecheckerboard="0"
     inkscape:deskcolor="#d1d1d1"
     inkscape:window-width="1920"
     inkscape:window-height="1009"
     inkscape:window-x="1912"
     inkscape:window-y="-8"
     inkscape:window-maximized="1"
     inkscape:current-layer="layer1"
     inkscape:export-bgcolor="#ffffffff"><inkscape:page
       x="0"
       y="0"
       width="1544"
       height="500"
       id="page9"
       margin="0"
       bleed="0"
       inkscape:label="banner" /></sodipodi:namedview><metadata
     id="metadata1"><rdf:RDF><cc:Work
         rdf:about=""><dc:format>image/svg+xml</dc:format><dc:type
           rdf:resource="http://purl.org/dc/dcmitype/StillImage" /></cc:Work></rdf:RDF></metadata><style
     id="style1">.st0{fill:#06C}</style><g
     inkscape:groupmode="layer"
     id="layer1"
     inkscape:label="Icons"><path
       d="m 792.50379,184.19133 -58.16766,24.92901 c -3.6355,1.55806 -5.66096,5.45322 -4.85597,9.29644 0.805,3.84322 4.18082,6.64773 8.12787,6.64773 v 2.07742 c 0,3.4537 2.77859,6.23225 6.23229,6.23225 h 103.87086 c 3.45369,0 6.23222,-2.77855 6.23222,-6.23225 v -2.07742 c 3.94711,0 7.34887,-2.77854 8.12793,-6.64773 0.779,-3.86919 -1.24647,-7.76435 -4.856,-9.29644 l -58.16766,-24.92901 c -2.07741,-0.8829 -4.46643,-0.8829 -6.54388,0 z m -29.96674,57.49252 h -16.61932 v 50.9746 c -0.15608,0.0779 -0.31153,0.18177 -0.46742,0.28565 l -12.4645,8.30966 c -3.0382,2.02548 -4.41453,5.81678 -3.34985,9.3224 1.06467,3.50567 4.31067,5.89469 7.9721,5.89469 H 853.9434 c 3.66147,0 6.88146,-2.38902 7.9461,-5.89469 1.06471,-3.50562 -0.28577,-7.29692 -3.34982,-9.3224 l -12.4645,-8.30966 c -0.15577,-0.10388 -0.31153,-0.18176 -0.46729,-0.28565 v -50.9746 H 829.0145 v 49.85802 h -10.38706 v -49.85802 h -16.61933 v 49.85802 H 789.5436 v -49.85802 h -16.61932 v 49.85802 h -10.38707 z m 33.23868,-41.54834 a 8.3096691,8.3096691 0 1 1 0,16.61933 8.3096691,8.3096691 0 1 1 0,-16.61933 z"
       id="path1"
       style="fill:#3479d3;fill-opacity:1;stroke-width:1.74015"
       inkscape:label="institution" /><path
       d="m 303.81279,184.93127 c -2.80424,-1.86949 -6.43939,-1.86949 -9.2436,0 l -35.28668,23.52444 h -30.7168 c -6.88078,0 -12.46329,5.58252 -12.46329,12.46328 v 83.08859 c 0,6.88076 5.58251,12.46327 12.46329,12.46327 h 54.00755 V 291.5443 c 0,-9.16573 7.45202,-16.61772 16.61772,-16.61772 9.16571,0 16.61771,7.45199 16.61771,16.61772 v 24.92655 h 54.00756 c 6.88079,0 12.46329,-5.58251 12.46329,-12.46327 v -83.08859 c 0,-6.88076 -5.5825,-12.46328 -12.46329,-12.46328 h -30.7168 z m -62.7838,48.45101 h 8.30887 c 2.28492,0 4.15441,1.86951 4.15441,4.15443 v 16.61772 c 0,2.28494 -1.86949,4.15443 -4.15441,4.15443 h -8.30887 c -2.28493,0 -4.15444,-1.86949 -4.15444,-4.15443 v -16.61772 c 0,-2.28492 1.86951,-4.15443 4.15444,-4.15443 z m 103.86069,4.15443 c 0,-2.28492 1.86949,-4.15443 4.15443,-4.15443 h 8.30886 c 2.28494,0 4.15444,1.86951 4.15444,4.15443 v 16.61772 c 0,2.28494 -1.8695,4.15443 -4.15444,4.15443 h -8.30886 c -2.28494,0 -4.15443,-1.86949 -4.15443,-4.15443 z M 241.02899,266.6177 h 8.30887 c 2.28492,0 4.15441,1.86949 4.15441,4.15444 v 16.61771 c 0,2.28496 -1.86949,4.15445 -4.15441,4.15445 h -8.30887 c -2.28493,0 -4.15444,-1.86949 -4.15444,-4.15445 v -16.61771 c 0,-2.28495 1.86951,-4.15444 4.15444,-4.15444 z m 103.86069,4.15444 c 0,-2.28495 1.86949,-4.15444 4.15443,-4.15444 h 8.30886 c 2.28494,0 4.15444,1.86949 4.15444,4.15444 v 16.61771 c 0,2.28496 -1.8695,4.15445 -4.15444,4.15445 h -8.30886 c -2.28494,0 -4.15443,-1.86949 -4.15443,-4.15445 z m -68.54805,-41.54428 a 22.84936,22.84936 0 1 1 45.69872,0 22.84936,22.84936 0 1 1 -45.69872,0 z m 22.84935,-12.46327 c -2.28493,0 -4.15444,1.86948 -4.15444,4.1544 v 8.30887 c 0,2.28493 1.86951,4.15442 4.15444,4.15442 h 8.30886 c 2.28493,0 4.15444,-1.86949 4.15444,-4.15442 0,-2.28494 -1.86951,-4.15443 -4.15444,-4.15443 h -4.15443 v -4.15444 c 0,-2.28492 -1.86948,-4.1544 -4.15443,-4.1544 z"
       id="path1-3"
       style="fill:#3479d3;fill-opacity:1;stroke-width:1.74016"
       inkscape:label="school" /><g
       id="g2"
       transform="matrix(3.1403551,0,0,3.1403551,235.42545,31.057051)"
       style="stroke-width:2.09433"
       inkscape:label="spid-cie"><path
         id="path1-9"
         style="stroke-width:2.09433;fill:#0053a2;fill-opacity:1"
         d="M 77.132905 0.076674282 A 3.1 3.1 0 0 0 75.4992 0.19890832 L 34.000745 14.50029 L 30.599348 15.699124 C 43.599335 18.099122 54.200865 24.600854 61.700858 35.700843 A 44.9 44.9 0 0 1 68.799834 71.799844 C 66.099837 84.799831 58.79927 94.801061 47.599281 102.00105 L 47.799087 102.00105 L 54.500803 103.39969 C 60.900797 104.79969 67.200955 106.39924 73.700949 107.49923 L 78.900597 108.39954 A 6.9 6.9 0 0 0 82.89906 107.80012 A 7.6 7.6 0 0 0 87.000952 101.19948 A 16 16 0 0 0 86.500263 96.300716 A 12.7 12.7 0 0 1 85.900846 93.501087 A 6.1 6.1 0 0 1 87.400563 89.100662 C 87.900563 88.500662 88.399009 87.798982 88.999008 87.198982 A 3.1 3.1 0 0 0 89.800582 84.599158 L 89.499698 83.400324 A 3.2 3.2 0 0 1 89.899309 80.899228 A 10.5 10.5 0 0 0 90.700882 79.799122 A 3.8 3.8 0 0 0 91.199221 75.69958 L 90.29892 73.40064 A 3.4 3.4 0 0 1 90.79961 69.799437 A 9.6 9.6 0 0 1 93.799045 67.500497 A 19.8 19.8 0 0 0 97.900937 64.700868 A 10.9 10.9 0 0 0 100.59949 61.400549 A 4.1 4.1 0 0 0 100.9991 59.200336 A 5.5 5.5 0 0 0 100.30096 56.69924 A 46.7 46.7 0 0 0 96.499947 50.70037 C 93.69995 47.000373 90.999783 43.299303 88.199786 39.699307 A 14.2 14.2 0 0 1 85.400156 32.60033 C 85.200157 31.300331 85.100545 30.000593 85.000545 28.700594 A 15 15 0 0 1 85.000545 25.701159 C 85.000545 24.40116 85.199078 23.099071 85.299078 21.799073 A 22.1 22.1 0 0 0 84.100244 12.899495 C 82.900246 9.6994978 81.699041 6.7003023 80.499042 3.6003054 A 7 7 0 0 0 78.599713 0.80067587 A 3.1 3.1 0 0 0 77.132905 0.076674282 z M 25.500778 23.900558 L 25.500778 29.300011 L 30.700426 29.300011 L 30.700426 23.900558 L 25.500778 23.900558 z M 12.200775 24.100363 C 7.5007799 24.100363 4.3007005 25.399023 2.6007022 27.899021 C 0.9007039 30.399018 0.00087831567 34.700691 0.00087831567 40.700685 C 0.00087831567 46.700679 0.79962575 51.00108 2.4996241 53.601077 C 4.1996224 56.201075 7.40078 57.500813 12.200775 57.500813 A 43.8 43.8 0 0 0 21.398886 56.499434 L 21.398886 52.099009 A 51 51 0 0 1 12.699114 52.799504 C 9.8991167 52.799504 8.0011264 52.000757 7.0011274 50.300758 C 6.0011284 48.60076 5.4990592 45.499408 5.4990592 40.799413 C 5.4990592 36.099418 6.0998559 33.000416 7.0998549 31.300418 C 8.0998539 29.60042 10.000195 28.700594 12.800192 28.700594 A 50 50 0 0 1 21.398886 29.499817 L 21.398886 25.20047 A 39 39 0 0 0 12.200775 24.100363 z M 45.100536 32.898863 C 38.200543 32.898863 34.799968 37.10073 34.799968 45.500722 C 34.799968 49.700718 35.598909 52.698835 37.098908 54.698833 C 38.598906 56.698831 41.09985 57.599541 44.599846 57.599541 A 44.2 44.2 0 0 0 54.199919 56.499434 L 54.199919 52.700777 L 52.900007 52.700777 L 46.000836 53.100388 C 43.700839 53.100388 42.200605 52.700475 41.400605 51.800476 A 6.8 6.8 0 0 1 40.100693 47.400051 L 54.700609 47.400051 L 54.999142 43.798848 C 54.999142 36.498855 52.000529 32.898863 45.100536 32.898863 z M 25.500778 33.300825 L 25.500778 57.000124 L 30.700426 57.000124 L 30.700426 33.300825 L 25.500778 33.300825 z M 45.199263 37.099483 C 46.899261 37.099483 48.099194 37.600474 48.899193 38.500473 C 49.699192 39.400472 49.9993 40.999239 49.9993 43.399237 L 40.100693 43.399237 C 40.100693 41.099239 40.499528 39.500472 41.299527 38.500473 A 5 5 0 0 1 45.199263 37.099483 z M 20.200052 63.299878 L 20.200052 95.698949 L 25.500778 95.698949 L 25.500778 63.299878 L 20.200052 63.299878 z M 30.900232 63.299878 L 30.900232 95.698949 L 42.199828 95.698949 C 47.399823 95.698949 50.900203 94.201066 52.700202 91.101069 A 16.9 16.9 0 0 0 54.59953 85.89907 A 34.8 34.8 0 0 0 55.10022 78.999899 C 55.10022 73.599905 54.199316 69.700884 52.399318 67.100886 C 50.59932 64.500889 47.099823 63.299878 42.199828 63.299878 L 30.900232 63.299878 z M 36.200958 67.900109 L 42.199828 67.900109 C 45.199825 67.900109 47.20105 68.799934 48.201049 70.499933 C 49.201048 72.199931 49.700766 74.999903 49.700766 78.999899 A 33.8 33.8 0 0 1 49.399883 83.901014 A 11.3 11.3 0 0 1 48.400855 87.600944 C 47.400856 89.900942 45.299825 91.101069 42.199828 91.101069 L 36.200958 91.101069 L 36.200958 67.900109 z "
         inkscape:label="cie"
         transform="matrix(0.26458333,0,0,0.26458333,315.62649,66.14074)" /><path
         id="XMLID_85_"
         style="stroke-width:2.09433"
         class="st0"
         d="M 132.70047 -0.0010901635 L 132.70047 15.600204 L 131.20076 15.29932 C 128.30076 14.79932 126.00031 14.500097 124.40031 14.500097 C 119.10032 14.500097 115.09895 16.100137 112.49895 19.300134 C 109.79895 22.500131 108.50049 27.600551 108.50049 34.600544 C 108.50049 41.600537 109.60081 46.700957 111.8008 49.900954 C 114.0008 53.100951 117.90002 54.700991 123.50001 54.700991 C 126.10001 54.700991 129.19921 53.899893 132.7992 52.199894 L 132.7992 53.80069 L 143.00104 53.80069 L 143.00104 -0.0010901635 L 132.70047 -0.0010901635 z M 15.000852 14.500097 C 10.600857 14.500097 7.1006704 15.500613 4.3006732 17.600611 C 1.6006759 19.700609 0.2011317 22.701077 0.2011317 26.801072 C 0.2011317 30.901068 1.1994906 33.701041 3.0994887 35.301039 C 5.0994867 36.901038 7.9990706 38.000086 11.999067 38.700086 C 15.999063 39.400085 18.498928 39.899609 19.398927 40.399609 C 20.298926 40.799608 20.799917 41.501095 20.799917 42.501094 C 20.799917 43.501093 20.400004 44.198956 19.500005 44.698956 C 18.600006 45.198955 16.899082 45.399451 14.399085 45.399451 C 11.999087 45.399451 7.5001536 45.000616 1.2001599 44.200617 L 0.89927609 52.799311 L 3.4003725 53.300001 C 8.2003677 54.2 12.299 54.700991 15.698997 54.700991 C 25.998987 54.700991 31.100485 50.598929 31.100485 42.298938 C 31.100485 38.498941 30.20066 35.799853 28.500661 34.099855 C 26.800663 32.499856 23.799807 31.201002 19.699811 30.501003 C 15.599815 29.701003 12.999066 29.199128 11.999067 28.799129 C 10.999068 28.399129 10.499349 27.699993 10.499349 26.699994 C 10.499349 25.699995 10.899456 24.999781 11.599455 24.499782 C 12.299455 23.999782 14.000573 23.799287 16.50057 23.799287 C 19.000568 23.799287 23.500579 24.200472 29.800573 25.000471 L 29.899301 16.500504 L 27.400555 15.999815 C 22.10056 14.999816 18.000849 14.500097 15.000852 14.500097 z M 57.500686 14.500097 C 54.900688 14.500097 51.999832 15.499535 48.699835 17.499533 L 48.699835 15.400398 L 38.500346 15.400398 L 38.500346 69.799245 L 48.699835 69.799245 L 48.699835 54.000496 L 49.600136 54.200301 C 51.600134 54.500301 53.400669 54.700991 55.100668 54.700991 C 61.300661 54.700991 65.799401 53.29929 68.499398 50.399293 C 71.199396 47.499296 72.59894 42.29907 72.59894 34.899077 C 72.59894 27.499085 71.399007 22.200325 68.89901 19.100328 C 66.499012 16.100331 62.700681 14.500097 57.500686 14.500097 z M 90.499174 15.499126 C 87.299177 15.499126 84.6997 16.499641 82.699702 18.599639 C 80.599704 20.699637 79.599189 23.300192 79.599189 26.500189 C 79.599189 29.700186 80.699704 32.399468 82.699702 34.499466 C 84.6997 36.599464 87.299177 37.701057 90.499174 37.701057 C 93.699171 37.701057 96.19992 36.600542 98.199918 34.600544 C 100.19992 32.500546 101.19935 29.899991 101.19935 26.699994 C 101.19935 23.499998 100.19992 20.900715 98.199918 18.700717 C 96.29992 16.600719 93.699171 15.499126 90.499174 15.499126 z M 125.19954 23.300948 C 127.39953 23.300948 129.90048 23.600171 132.70047 24.10017 L 132.70047 44.299345 L 131.60037 44.49915 C 129.30037 45.19915 127.19973 45.399451 124.99973 45.399451 C 122.79973 45.399451 121.2995 44.600703 120.3995 42.900705 C 119.4995 41.200707 119.00086 38.400734 119.00086 34.400738 C 119.00086 27.000746 121.09954 23.300948 125.19954 23.300948 z M 55.399201 23.700559 C 59.899196 23.700559 62.100917 27.200746 62.100917 34.400738 C 62.100917 38.600734 61.499042 41.600318 60.399043 43.300316 C 59.299044 45.000315 57.299091 45.90014 54.299094 45.90014 C 52.899096 45.90014 50.999833 45.699451 48.699835 45.399451 L 48.699835 25.299004 L 49.600136 24.899393 C 51.600134 24.099394 53.499203 23.700559 55.399201 23.700559 z M 90.499174 42.20021 C 87.299177 42.20021 84.6997 43.200726 82.699702 45.300723 C 80.599704 47.400721 79.599189 49.998926 79.599189 53.198923 L 101.19935 53.401079 C 101.19935 50.201082 100.19992 47.599449 98.199918 45.399451 C 96.29992 43.299453 93.699171 42.20021 90.499174 42.20021 z "
         inkscape:label="spid"
         transform="matrix(0.26458333,0,0,0.26458333,310.04629,44.596651)" /></g><path
       style="fill:none;fill-opacity:1;stroke:#5386d2;stroke-width:13.9212;stroke-linecap:round;stroke-linejoin:round;stroke-dasharray:none;stroke-opacity:1;marker-start:url(#RoundedArrow);marker-end:url(#marker7)"
       d="m 512.37753,250 h 86.80363"
       id="path8"
       inkscape:label="arrow-1" /><path
       style="fill:#0053a2;fill-opacity:1;stroke:#5386d2;stroke-width:13.921;stroke-linecap:round;stroke-linejoin:round;stroke-dasharray:none;stroke-opacity:1;marker-start:url(#RoundedArrow);marker-end:url(#marker7)"
       d="m 992.34647,250 h 86.80363"
       id="path12"
       inkscape:label="arrow-2" /></g></svg>
