<?xml version="1.0" encoding="UTF-8" standalone="no"?>
<!-- Created with Inkscape (http://www.inkscape.org/) -->

<svg
   width="256"
   height="256"
   viewBox="0 0 256 256"
   version="1.1"
   id="svg1"
   xml:space="preserve"
   inkscape:version="1.3.2 (091e20e, 2023-11-25, custom)"
   sodipodi:docname="icon.svg"
   xmlns:inkscape="http://www.inkscape.org/namespaces/inkscape"
   xmlns:sodipodi="http://sodipodi.sourceforge.net/DTD/sodipodi-0.dtd"
   xmlns="http://www.w3.org/2000/svg"
   xmlns:svg="http://www.w3.org/2000/svg"
   xmlns:rdf="http://www.w3.org/1999/02/22-rdf-syntax-ns#"
   xmlns:cc="http://creativecommons.org/ns#"
   xmlns:dc="http://purl.org/dc/elements/1.1/"><defs
     id="defs1" /><sodipodi:namedview
     id="base"
     pagecolor="#ffffff"
     bordercolor="#000000"
     borderopacity="0.3"
     inkscape:pageopacity="0.0"
     inkscape:pageshadow="2"
     inkscape:zoom="1.979899"
     inkscape:cx="149.75511"
     inkscape:cy="142.17897"
     inkscape:document-units="px"
     inkscape:showpageshadow="2"
     inkscape:pagecheckerboard="0"
     inkscape:deskcolor="#d1d1d1"
     inkscape:window-width="1920"
     inkscape:window-height="1009"
     inkscape:window-x="1912"
     inkscape:window-y="-8"
     inkscape:window-maximized="1"
     inkscape:current-layer="layer1"
     inkscape:export-bgcolor="#ffffffff"><inkscape:page
       x="0"
       y="0"
       width="256"
       height="256"
       id="page9"
       margin="0"
       bleed="0"
       inkscape:label="icon" /></sodipodi:namedview><metadata
     id="metadata1"><rdf:RDF><cc:Work
         rdf:about=""><dc:format>image/svg+xml</dc:format><dc:type
           rdf:resource="http://purl.org/dc/dcmitype/StillImage" /></cc:Work></rdf:RDF></metadata><style
     id="style1">.st0{fill:#06C}</style><g
     inkscape:groupmode="layer"
     id="layer1"
     inkscape:label="Icon"
     style="display:inline"><path
       d="m 132.27018,45.972807 c -2.59089,-1.727257 -5.94947,-1.727257 -8.54033,0 L 91.127789,67.707494 H 62.747948 c -6.357286,0 -11.515076,5.157797 -11.515076,11.515066 v 76.76716 c 0,6.35726 5.15779,11.51505 11.515076,11.51505 h 49.898622 v -23.03012 c 0,-8.46839 6.88506,-15.35343 15.35343,-15.35343 8.46837,0 15.35342,6.88504 15.35342,15.35343 v 23.03012 h 49.89865 c 6.35727,0 11.51506,-5.15779 11.51506,-11.51505 V 79.22256 c 0,-6.357269 -5.15779,-11.515066 -11.51506,-11.515066 H 164.87222 Z M 74.263012,90.737639 h 7.676726 c 2.111081,0 3.838338,1.727267 3.838338,3.838347 v 15.353444 c 0,2.1111 -1.727257,3.83836 -3.838338,3.83836 h -7.676726 c -2.111092,0 -3.838366,-1.72726 -3.838366,-3.83836 V 94.575986 c 0,-2.11108 1.727274,-3.838347 3.838366,-3.838347 z m 95.958898,3.838347 c 0,-2.11108 1.72726,-3.838347 3.83836,-3.838347 h 7.67672 c 2.1111,0 3.83837,1.727267 3.83837,3.838347 v 15.353444 c 0,2.1111 -1.72727,3.83836 -3.83837,3.83836 h -7.67672 c -2.1111,0 -3.83836,-1.72726 -3.83836,-3.83836 z M 74.263012,121.44448 h 7.676726 c 2.111081,0 3.838338,1.72726 3.838338,3.83837 v 15.35343 c 0,2.11112 -1.727257,3.83837 -3.838338,3.83837 h -7.676726 c -2.111092,0 -3.838366,-1.72725 -3.838366,-3.83837 v -15.35343 c 0,-2.11111 1.727274,-3.83837 3.838366,-3.83837 z m 95.958898,3.83837 c 0,-2.11111 1.72726,-3.83837 3.83836,-3.83837 h 7.67672 c 2.1111,0 3.83837,1.72726 3.83837,3.83837 v 15.35343 c 0,2.11112 -1.72727,3.83837 -3.83837,3.83837 h -7.67672 c -2.1111,0 -3.83836,-1.72725 -3.83836,-3.83837 z M 106.88905,86.899292 a 21.110966,21.110966 0 1 1 42.22192,0 21.110966,21.110966 0 1 1 -42.22192,0 z M 128,75.384229 c -2.11109,0 -3.83836,1.727249 -3.83836,3.838331 v 7.676732 c 0,2.111078 1.72727,3.838347 3.83836,3.838347 h 7.67672 c 2.11109,0 3.83836,-1.727269 3.83836,-3.838347 0,-2.111105 -1.72727,-3.838362 -3.83836,-3.838362 h -3.83835 v -3.83837 c 0,-2.111082 -1.72726,-3.838331 -3.83837,-3.838331 z"
       id="path1-3"
       style="fill:#3479d3;fill-opacity:1;stroke-width:1.74016"
       inkscape:label="school" /><path
       id="path1"
       style="display:inline;stroke:#fefefe;stroke-width:12;stroke-linecap:round;stroke-linejoin:round;stroke-dasharray:none;stroke-opacity:1;paint-order:markers stroke fill"
       class="st0"
       d="m 120.98552,154.88647 v 11.17542 l -1.04247,-0.21473 c -2.01536,-0.35816 -3.6147,-0.57418 -4.72661,-0.57418 -3.68326,0 -6.46185,1.14583 -8.26872,3.43807 -1.87639,2.29221 -2.78144,5.94646 -2.78144,10.96068 0,5.01423 0.76453,8.66848 2.29342,10.9607 1.52889,2.29222 4.23951,3.43807 8.13125,3.43807 1.80688,0 3.96148,-0.57482 6.46331,-1.79256 v 1.14601 h 7.08878 v -38.53748 z m -81.795926,10.38651 c -3.057793,0 -5.491165,0.71775 -7.437035,2.22203 -1.876372,1.50425 -2.847884,3.65211 -2.847884,6.58902 0,2.93689 0.693499,4.94341 2.01391,6.08953 1.389906,1.1461 3.40626,1.93299 6.186073,2.43442 2.779813,0.50141 4.515856,0.86021 5.141314,1.21836 0.625458,0.28653 0.973734,0.78915 0.973734,1.50547 0,0.71631 -0.27725,1.21732 -0.902708,1.57548 -0.625459,0.35815 -1.807008,0.50183 -3.544391,0.50183 -1.667886,0 -4.795513,-0.28822 -9.173718,-0.86127 l -0.208492,6.1619 1.736682,0.35709 c 3.335774,0.6447 6.185396,1.00366 8.548236,1.00366 7.158019,0 10.701906,-2.93796 10.701906,-8.8834 0,-2.722 -0.623995,-4.65474 -1.805416,-5.87248 -1.181419,-1.1461 -3.268031,-2.0777 -6.117338,-2.57911 -2.849308,-0.57306 -4.654855,-0.93186 -5.349809,-1.21838 -0.694954,-0.28653 -1.042467,-0.78681 -1.042467,-1.50312 0,-0.71633 0.278773,-1.21967 0.765241,-1.57783 0.486466,-0.35815 1.667248,-0.50182 3.40463,-0.50182 1.737384,0 4.864247,0.28821 9.242451,0.86126 l 0.06873,-6.08953 -1.736681,-0.35711 c -3.683254,-0.71631 -6.532113,-1.076 -8.616972,-1.076 z m 29.535063,0 c -1.806879,0 -3.821703,0.71703 -6.115048,2.14967 v -1.50313 h -7.088781 v 38.96695 h 7.088781 v -11.3178 l 0.62548,0.14238 c 1.389908,0.21488 2.640199,0.35945 3.82162,0.35945 4.308709,0 7.437103,-1.00363 9.313476,-3.08096 1.876374,-2.07731 2.847885,-5.80231 2.847885,-11.10307 0,-5.30076 -0.833275,-9.09723 -2.570657,-11.31781 -1.667888,-2.14895 -4.308999,-3.29568 -7.922756,-3.29568 z m 22.934293,0.71656 c -2.22385,0 -4.030927,0.71775 -5.420833,2.22202 -1.459401,1.50426 -2.155962,3.36552 -2.155962,5.65773 0,2.29222 0.766054,4.22583 2.155962,5.73008 1.389906,1.50428 3.196983,2.29204 5.420833,2.29204 2.22385,0 3.959902,-0.78704 5.349807,-2.21968 1.389905,-1.50426 2.084935,-3.36551 2.084935,-5.65772 0,-2.29223 -0.69503,-4.15653 -2.084935,-5.73244 -1.320409,-1.50427 -3.125957,-2.29203 -5.349807,-2.29203 z m 24.11422,5.58771 c 1.52891,0 3.26649,0.21601 5.21235,0.57417 v 14.46878 l -0.76523,0.14238 c -1.5984,0.50142 -3.05797,0.64654 -4.58687,0.64654 -1.52889,0 -2.57068,-0.57482 -3.19614,-1.79255 -0.62545,-1.21775 -0.97374,-3.22194 -0.97374,-6.08722 0,-5.30074 1.46033,-7.9521 4.30963,-7.9521 z m -48.507969,0.28709 c 3.127291,0 4.655592,2.50752 4.655592,7.66501 0,3.00854 -0.415487,5.15655 -1.179935,6.37429 -0.764448,1.21775 -2.156037,1.86259 -4.240898,1.86259 -0.972933,0 -2.29196,-0.14223 -3.890352,-0.35711 v -14.39877 l 0.62548,-0.28708 c 1.389908,-0.57305 2.709702,-0.85893 4.030113,-0.85893 z m 24.393749,13.2504 c -2.22385,0 -4.030927,0.71775 -5.420833,2.22201 -1.459401,1.50428 -2.155962,3.36552 -2.155962,5.65775 l 15.011537,0.1447 c 0,-2.29221 -0.69503,-4.15419 -2.084935,-5.73008 -1.320409,-1.50428 -3.125957,-2.29438 -5.349807,-2.29438 z"
       inkscape:label="spid" /><path
       id="path1-9"
       style="display:inline;fill:#0053a2;fill-opacity:1;stroke:#fefefe;stroke-width:12;stroke-linecap:round;stroke-linejoin:round;stroke-dasharray:none;stroke-opacity:1;paint-order:stroke fill markers"
       d="m 217.95036,150.75022 a 2.1143014,2.1151248 0 0 0 -1.11285,0.0841 l -28.30508,9.75715 -2.31737,0.81776 c 8.86642,1.63752 16.09509,6.07378 21.21034,13.64728 a 30.623269,30.635196 0 0 1 4.84357,24.62978 c -1.84149,8.86987 -6.82063,15.69465 -14.4594,20.6072 h 0.13497 l 4.57109,0.95533 c 4.36499,0.95521 8.66122,2.0467 13.09442,2.79721 l 3.54738,0.61397 a 4.7060257,4.7078586 0 0 0 2.72738,-0.41016 5.1834485,5.1854673 0 0 0 2.79613,-4.50408 10.912523,10.916773 0 0 0 -0.34125,-3.3424 8.6618154,8.6651888 0 0 1 -0.40745,-1.91067 4.1603995,4.1620198 0 0 1 1.02117,-3.00101 c 0.34102,-0.40939 0.68326,-0.88733 1.09248,-1.29671 a 2.1143014,2.1151248 0 0 0 0.54496,-1.77311 l -0.20372,-0.8203 a 2.1825046,2.1833546 0 0 1 0.27247,-1.70432 7.1613435,7.1641326 0 0 0 0.54498,-0.75154 2.5917243,2.5927337 0 0 0 0.34123,-2.79721 l -0.61371,-1.5693 a 2.3189112,2.3198144 0 0 1 0.34124,-2.45584 6.547514,6.550064 0 0 1 2.04489,-1.5693 13.504248,13.509508 0 0 0 2.79613,-1.91066 7.4341566,7.4370519 0 0 0 1.8437,-2.25204 2.796334,2.7974231 0 0 0 0.2725,-1.50052 3.75118,3.7526409 0 0 0 -0.47876,-1.70686 31.850927,31.863332 0 0 0 -2.59241,-4.09392 c -1.90969,-2.5245 -3.74877,-5.04885 -5.65847,-7.50511 a 9.6848646,9.6886368 0 0 1 -1.90992,-4.84291 c -0.13641,-0.88699 -0.20682,-1.7752 -0.27503,-2.66219 a 10.230491,10.234476 0 0 1 0,-2.04569 c 0,-0.887 0.13808,-1.77522 0.20626,-2.6622 a 15.072924,15.078794 0 0 0 -0.81998,-6.07083 c -0.81843,-2.18335 -1.63645,-4.23084 -2.45489,-6.34596 a 4.774229,4.7760883 0 0 0 -1.2962,-1.91067 2.1143014,2.1151248 0 0 0 -1.0008,-0.49423 z m -35.21392,16.25596 v 3.68377 h 3.54737 v -3.68377 z m -9.07087,0.13502 c -3.20554,0 -5.38776,0.88767 -6.54721,2.59341 -1.15946,1.70574 -1.77495,4.63925 -1.77495,8.73303 0,4.09379 0.54673,7.02784 1.70619,8.80181 1.15945,1.77397 3.34222,2.66219 6.61597,2.66219 a 29.873033,29.884668 0 0 0 6.27474,-0.68275 v -3.00356 a 34.783669,34.797215 0 0 1 -5.93349,0.47895 c -1.90969,0 -3.20658,-0.54698 -3.8886,-1.70688 -0.68203,-1.1599 -1.02373,-3.27418 -1.02373,-6.48098 0,-3.20679 0.41044,-5.32109 1.09247,-6.48099 0.68204,-1.1599 1.97891,-1.77564 3.88862,-1.77564 a 34.101635,34.114916 0 0 1 5.86473,0.54518 v -2.93224 a 26.599276,26.609635 0 0 0 -6.27474,-0.75153 z m 22.4378,6.00458 c -4.70602,0 -7.02343,2.86672 -7.02343,8.59801 0,2.86565 0.54563,4.91259 1.56868,6.27719 1.02305,1.3646 2.72639,1.9769 5.11351,1.9769 a 30.145846,30.157587 0 0 0 6.54722,-0.74899 v -2.59342 h -0.8862 l -4.70605,0.27261 c -1.56869,0 -2.59174,-0.27248 -3.13738,-0.88656 a 4.6378223,4.6396286 0 0 1 -0.88621,-3.00356 h 9.95707 l 0.20629,-2.45585 c 0,-4.98077 -2.04747,-7.43633 -6.7535,-7.43633 z m -13.36693,0.2726 v 16.17189 h 3.54737 v -16.17189 z m 13.43569,2.59341 c 1.15945,0 1.97801,0.34126 2.52365,0.95534 0.54562,0.61406 0.75123,1.70487 0.75123,3.3424 h -6.7535 c 0,-1.5693 0.27438,-2.66012 0.82001,-3.3424 a 3.4101635,3.4114916 0 0 1 2.65861,-0.95534 z m -17.0518,17.87621 v 22.10516 h 3.61611 V 193.888 Z m 7.29845,0 v 22.10516 h 7.70845 c 3.54656,0 5.93329,-1.02348 7.16095,-3.13859 a 11.526353,11.530841 0 0 0 1.2962,-3.5462 23.734738,23.743982 0 0 0 0.34124,-4.70788 c 0,-3.68442 -0.61605,-6.3451 -1.84371,-8.11907 -1.22766,-1.77398 -3.61272,-2.59342 -6.95468,-2.59342 z m 3.61612,3.1386 h 4.09233 c 2.04611,0 3.4103,0.61319 4.09234,1.77309 0.68203,1.15991 1.02117,3.0716 1.02117,5.8008 a 23.052705,23.061684 0 0 1 -0.20373,3.34239 7.7069697,7.7099712 0 0 1 -0.68248,2.52462 c -0.68202,1.56929 -2.113,2.38707 -4.2273,2.38707 h -4.09233 z"
       inkscape:label="cie" /></g></svg>
